<svg preserveAspectRatio="none" width="100%" height="100%" overflow="visible" style="display: block;" viewBox="0 0 36 36" fill="none" xmlns="http://www.w3.org/2000/svg">
<g id="lucide/rotate-ccw">
<rect x="0.5" y="0.5" width="35" height="35" rx="17.5" stroke="var(--stroke-0, #CCCCCC)"/>
<path id="Vector" d="M22.2 19.4L25 22.2M25 22.2L22.2 25M25 22.2H20.7713C20.3125 22.1953 19.8619 22.078 19.4591 21.8583C19.0563 21.6385 18.7136 21.3232 18.4613 20.94L18.21 20.625M22.2 11L25 13.8M25 13.8L22.2 16.6M25 13.8L20.8189 13.8C20.3664 13.7969 19.9198 13.9036 19.5175 14.1108C19.1152 14.3181 18.7691 14.6197 18.5089 14.99L14.6911 21.01C14.4309 21.3803 14.0848 21.6819 13.6825 21.8892C13.2802 22.0964 12.8336 22.2031 12.3811 22.2H11M11 13.8H12.3804C12.9022 13.7964 13.4147 13.9386 13.8599 14.2107C14.3052 14.4829 14.6656 14.874 14.9004 15.34" stroke="var(--stroke-0, #696969)" stroke-linecap="round" stroke-linejoin="round"/>
</g>
</svg>
