<svg preserveAspectRatio="none" width="100%" height="100%" overflow="visible" style="display: block;" viewBox="0 0 36 36" fill="none" xmlns="http://www.w3.org/2000/svg">
<g id="lucide/rotate-ccw">
<rect x="0.5" y="0.5" width="35" height="35" rx="17.5" stroke="var(--stroke-0, #CCCCCC)"/>
<path id="Vector" d="M16.1883 11.2385C14.851 11.5968 13.65 12.3437 12.7371 13.3846C11.8243 14.4255 11.2406 15.7137 11.0599 17.0863C10.8792 18.4589 11.1096 19.8543 11.7219 21.096C12.3342 22.3377 13.301 23.3699 14.5 24.0622C15.699 24.7544 17.0763 25.0756 18.4578 24.985C19.8393 24.8945 21.163 24.3963 22.2613 23.5535C23.3597 22.7107 24.1835 21.5611 24.6285 20.2501C25.0735 18.9391 25.1198 17.5256 24.7615 16.1883C24.2479 14.2999 23.0242 12.6832 21.3462 11.6762L19.1934 10.4333M19.1934 10.4333L22.9497 9.42679M19.1934 10.4333L20.1999 14.1897" stroke="var(--stroke-0, #696969)" stroke-linecap="round" stroke-linejoin="round"/>
</g>
</svg>
