<svg preserveAspectRatio="none" width="100%" height="100%" overflow="visible" style="display: block;" viewBox="0 0 207.342 23.8852" fill="none" xmlns="http://www.w3.org/2000/svg">
<path id="Vector" d="M37.7307 0.216965L25.5911 23.6881H33.7041L35.6477 19.3968H44.6674L45.4397 23.6881H53.5537L48.8642 0.216965H37.7307ZM37.6621 14.9044L42.658 5.04774H42.7267L44.2365 14.9044H37.6621ZM66.9682 0.216965H59.1547L55.6366 23.6881H75.0165L75.8226 18.0552H64.2512L66.9682 0.216965ZM132.757 0.216965L125.248 17.8223H125.18L123.1 0.216965H113.14L104.458 23.6881H112.102L117.801 6.75254H117.868L119.679 23.6881H128.934L135.977 7.1566H136.042L137.216 23.6871H145.029L142.986 0.21796L132.757 0.216965ZM200.299 0.216965L197.651 17.4163H197.582L190.141 0.216965H179.577L176.058 23.6881H183.499L185.779 6.85605H185.847L192.89 23.6881H203.82L207.342 0.216965H200.299ZM105.893 8.56284C106.563 4.94125 105.557 2.76173 103.446 1.48686C101.298 0.213979 98.0447 0.0139406 94.1226 0.0139406C90.2005 0.0139406 86.8456 0.213979 84.2302 1.48885C81.6128 2.76273 79.8025 4.94225 79.1337 8.56483L77.8916 15.3363C77.2219 18.9579 78.228 21.1016 80.3717 22.3764C82.5154 23.6513 85.7688 23.8852 89.6949 23.8852C93.621 23.8852 97.0396 23.6493 99.6202 22.3754C102.201 21.1016 103.979 18.9539 104.652 15.3353L105.893 8.56284ZM97.9442 9.19978L96.8386 14.8665C96.1021 18.5886 94.5267 18.9569 90.4682 18.9569C86.4097 18.9569 84.9348 18.6205 85.6712 14.8665L86.7779 9.20077C87.5154 5.47867 89.2261 5.14228 93.1493 5.14228C97.3073 5.14228 98.6459 5.50952 97.9442 9.19978ZM172.938 1.48785C170.79 0.213979 167.54 0.0129454 163.615 0.0129454C159.689 0.0129454 156.338 0.212984 153.722 1.48785C151.106 2.76273 149.294 4.94125 148.626 8.56383L147.384 15.3353C146.714 18.9569 147.72 21.1006 149.864 22.3754C152.007 23.6503 155.262 23.8852 159.187 23.8852C163.112 23.8852 166.531 23.6493 169.112 22.3754C171.693 21.1016 173.471 18.9539 174.144 15.3353L175.385 8.56284C176.055 4.94125 175.05 2.76173 172.938 1.48686M167.436 9.19978L166.33 14.8655C165.593 18.5876 164.019 18.9559 159.96 18.9559C155.902 18.9559 154.427 18.6195 155.164 14.8655L156.27 9.19978C157.007 5.47767 158.718 5.14129 162.641 5.14129C166.799 5.14129 168.142 5.50952 167.436 9.19978ZM23.5141 13.1269L12.1318 7.51786C10.2847 6.61222 10.1513 6.24399 10.3175 5.40303C10.417 4.90144 10.7186 4.62975 11.9636 4.49739C12.7359 4.42971 14.178 4.39786 15.5912 4.39786C16.465 4.39786 17.5706 4.4327 18.1429 4.46454C20.1901 4.5979 20.4259 4.90244 20.1572 6.24399L19.7532 8.2583H27.0391L27.7796 4.56605C28.3847 1.50875 27.3118 7.62415e-06 23.3459 7.62415e-06H10.217C5.38225 -0.00297802 4.10539 0.869826 3.36793 4.56307L2.93103 6.74558C2.49413 8.96093 3.09922 10.2388 6.42424 11.8849L14.8507 16.014C17.3019 17.2232 17.503 17.5238 17.3348 18.3289C17.2024 19.0345 16.9307 19.2345 15.7205 19.335C14.7801 19.4027 13.3698 19.4346 12.1278 19.4346C10.214 19.4346 9.20785 19.4027 8.39974 19.2674C7.42642 19.0982 7.18956 18.6623 7.3259 17.9895L7.79465 15.6388H0.8162L0.143435 19.0026C-0.529331 22.3615 1.1486 23.8722 5.51461 23.8722H18.6763C23.3787 23.8722 24.4844 22.5307 25.2249 18.937L25.6936 16.6539C26.03 14.9402 25.7623 14.2356 23.5111 13.1289L23.5141 13.1269Z" fill="var(--fill-0, #0F0F0F)"/>
</svg>
